<svg xmlns="http://www.w3.org/2000/svg" width="26" height="12" viewBox="0 0 26 12"><defs><style>.cls-1 { fill: #707781; fill-rule: evenodd; }</style></defs><path id="Forma_1" class="cls-1" d="M421.006 1842.21l.273-2.9a4.6 4.6 0 0 1 1.97-3.4.714.714 0 0 1-.256-.66.661.661 0 0 1 .751-.57l1.518.24c3.128-1.18 8.37-1.82 15.53 1.85a6.519 6.519 0 0 0 2.19.69 4.439 4.439 0 0 1 3.414 1.97 5.531 5.531 0 0 1 .356 4.12.661.661 0 0 1-.624.47h-2.186a2.539 2.539 0 0 1-4.954 0h-11.3a2.539 2.539 0 0 1-4.954 0h-.153a1.576 1.576 0 0 1-1.175-.54 1.711 1.711 0 0 1-.4-1.27zm2.962 1.12a1.248 1.248 0 1 0 1.247-1.29 1.274 1.274 0 0 0-1.247 1.29zm16.25 0a1.248 1.248 0 1 0 1.247-1.29 1.273 1.273 0 0 0-1.247 1.29zm-17.48-.68a2.539 2.539 0 0 1 4.954 0h11.3a2.539 2.539 0 0 1 4.954 0h1.666a3.744 3.744 0 0 0-.331-2.5 3.208 3.208 0 0 0-2.463-1.33 7.974 7.974 0 0 1-2.605-.82c-6.775-3.48-11.653-2.87-14.528-1.78a.521.521 0 0 1-.206.08 10.571 10.571 0 0 0-1.254.6 3.205 3.205 0 0 0-1.632 2.54l-.273 2.9a.3.3 0 0 0 .069.22.279.279 0 0 0 .2.09h.153z" transform="translate(-421 -1834)"/></svg>