<svg viewBox="0 0 20 20">
    <defs>
        <style>
            .cls-1 {
                fill: #2c333d;
                fill-rule: evenodd;
            }
        </style>
    </defs>
    <path id="Forma_1" class="cls-1" d="M1222.07 1740.93a9.995 9.995 0 1 0 2.93 7.07 9.932 9.932 0 0 0-2.93-7.07zm-7.07 15.39a8.32 8.32 0 1 1 8.32-8.32 8.326 8.326 0 0 1-8.32 8.32zm-3.06-3.01a.674.674 0 1 0-.67 1.17.656.656 0 0 0 .33.09.675.675 0 0 0 .59-.34.683.683 0 0 0-.25-.92zm-.35-10.52a.692.692 0 0 0 .34-.09.681.681 0 0 0 .24-.93.672.672 0 1 0-1.16.68.66.66 0 0 0 .58.34zm-2.82 2.4a.656.656 0 0 0 .33.09.675.675 0 0 0 .59-.34.674.674 0 1 0-1.17-.67.666.666 0 0 0 .25.92zm6.22-3.32a.675.675 0 0 0 0-1.35.675.675 0 1 0 0 1.35zm-6.22 8.95a.671.671 0 0 0-.24.92.66.66 0 0 0 .58.34.692.692 0 0 0 .34-.09.671.671 0 0 0 .24-.92.678.678 0 0 0-.92-.25zm.1-2.81a.672.672 0 0 0-.67-.68.675.675 0 1 0 0 1.35.67.67 0 0 0 .67-.67zm6.13 6.12a.67.67 0 0 0-.67.67.675.675 0 1 0 .67-.67zm6.23-3.31a.672.672 0 1 0-.68 1.16.621.621 0 0 0 .34.09.7.7 0 0 0 .59-.33.681.681 0 0 0-.25-.92zm.57-3.51a.672.672 0 0 0-.67.68v.01a.67.67 0 0 0 .67.67.679.679 0 0 0 .68-.67v-.02a.679.679 0 0 0-.68-.67zm-3.75-4.62a.721.721 0 0 0 .34.09.66.66 0 0 0 .58-.34.672.672 0 1 0-1.16-.68.681.681 0 0 0 .24.93zm.02 10.62a.664.664 0 0 0-.25.92.683.683 0 0 0 .58.33.6.6 0 0 0 .34-.09.681.681 0 0 0 .25-.92.671.671 0 0 0-.92-.24zm2.82-8.05a.656.656 0 0 0 .33-.09.674.674 0 1 0-.67-1.17.666.666 0 0 0-.25.92.675.675 0 0 0 .59.34zm-1.65 3.21l-3.54-.24-.36-5.19a.339.339 0 0 0-.34-.31.346.346 0 0 0-.34.31l-.34 5.1-.57-.04a.27.27 0 0 0-.21.07.3.3 0 0 0-.08.2v.75a.257.257 0 0 0 .27.27h.02l.48-.03-.03.51a.291.291 0 0 0 .09.25.325.325 0 0 0 .25.11h.93a.337.337 0 0 0 .34-.34l-.04-.64 3.47-.23a.276.276 0 0 0 0-.55z" transform="translate(-1205 -1738)"/>
</svg>