<svg xmlns="http://www.w3.org/2000/svg" width="36.719" height="35" viewBox="0 0 36.719 35"><defs><style>.cls-1 { fill: #008dfc; fill-rule: evenodd; }</style></defs><path id="D" class="cls-1" d="M685.5 3144a17.4 17.4 0 0 1-11.363-4.21l-7.853.77 4.11-5.25a17.491 17.491 0 1 1 15.106 8.69zm8.047-20.98a7.575 7.575 0 0 0-1.359-2.75 6.118 6.118 0 0 0-2.374-1.82 9.483 9.483 0 0 0-3.767-.63h-7.887v17.18h7.887a12.432 12.432 0 0 0 3.164-.47 5.75 5.75 0 0 0 2.391-1.36 7.172 7.172 0 0 0 1.74-2.55 11.524 11.524 0 0 0 .627-4.27 12.831 12.831 0 0 0-.422-3.33zm-6.41 7.71a5.564 5.564 0 0 1-2.367.37h-1.3v-9.39h1.324a3.775 3.775 0 0 1 2.953 1.01c.594.67.891 1.92.891 3.74a8.074 8.074 0 0 1-.4 2.98 2.534 2.534 0 0 1-1.101 1.29z" transform="translate(-666.281 -3109)"/></svg>