<svg xmlns="http://www.w3.org/2000/svg" width="24.97" height="23" viewBox="0 0 24.97 23">
  <defs>
    <style>
      .cls-1 {
        fill: #4991bf;
        fill-rule: evenodd;
      }
    </style>
  </defs>
  <path id="Forma_1" data-name="Forma 1" class="cls-1" d="M1021.61,1885.48l-2.23-2.15a1.24,1.24,0,0,0-.84-0.33,1.222,1.222,0,0,0-.84.33l-1.78,1.72,3.9,3.74,1.79-1.71A1.1,1.1,0,0,0,1021.61,1885.48Zm-17.28,10.69,3.9,3.74,10.76-10.32-3.91-3.74Zm-0.85.8-0.83,4.55,4.74-.8Zm10.8,6.57H999.555v-14.15h10.385l2.57-2.46H998.652a1.63,1.63,0,0,0-1.653,1.59v15.89a1.63,1.63,0,0,0,1.653,1.59h16.528a1.627,1.627,0,0,0,1.65-1.59v-11.36l-2.55,2.45v8.04Z" transform="translate(-997 -1883)"/>
</svg>
