<svg xmlns="http://www.w3.org/2000/svg" width="13.594" height="18.53" viewBox="0 0 13.594 18.53">
  <defs>
    <style>
      .cls-1 {
        fill: #efb428;
        fill-rule: evenodd;
      }
    </style>
  </defs>
  <path id="Forma_1_копия_18" data-name="Forma 1 копия 18" class="cls-1" d="M437.653,1009.33a2.417,2.417,0,0,0,1.2-2.17v-2.81h0.4a0.325,0.325,0,0,0,.334-0.32v-1.51a0.332,0.332,0,0,0-.334-0.32H426.333a0.332,0.332,0,0,0-.333.32v1.51a0.325,0.325,0,0,0,.333.32h0.4v2.86a1.961,1.961,0,0,0,1.187,2.12l3.3,1.92v0.83c-0.831.48-3,1.73-3.285,1.92a2.415,2.415,0,0,0-1.2,2.17v2.42h-0.4a0.325,0.325,0,0,0-.333.32v1.51a0.332,0.332,0,0,0,.333.32h12.921a0.332,0.332,0,0,0,.334-0.32v-1.51a0.325,0.325,0,0,0-.334-0.32h-0.4v-2.47a1.95,1.95,0,0,0-1.188-2.11l-3.3-1.93v-0.82C435.2,1010.78,437.368,1009.52,437.653,1009.33Zm-4.2,3.56,3.586,2.1a1.6,1.6,0,0,1,.49.35,1.62,1.62,0,0,1,.122.78v2.47h-9.718v-2.42a1.307,1.307,0,0,1,.687-1.23c0.227-.15,2.222-1.3,3.507-2.04a0.592,0.592,0,0,0,.292-0.5v-1.47a0.564,0.564,0,0,0-.288-0.49l-3.576-2.09-0.01-.01a1.571,1.571,0,0,1-.49-0.35,1.593,1.593,0,0,1-.122-0.78v-2.86h9.718v2.81a1.307,1.307,0,0,1-.687,1.23c-0.227.15-2.222,1.31-3.507,2.05a0.563,0.563,0,0,0-.292.49v1.47A0.564,0.564,0,0,0,433.455,1012.89Zm3.2-4.64s0.216-.18-0.115-0.13a19.359,19.359,0,0,1-3.76.59c-1.593,0-2.328-.43-3.37-0.44-0.227-.01-0.223.14,0.038,0.29s2.605,1.39,2.928,1.57a0.788,0.788,0,0,0,.848,0C433.722,1009.9,436.655,1008.25,436.655,1008.25Zm-7.219,9.53c-0.276.24-.408,0.42,0.226,0.42h6.349c0.657,0,.4-0.21.094-0.5a5.339,5.339,0,0,0-3.366-.92A5,5,0,0,0,429.436,1017.78Z" transform="translate(-426 -1002.22)"/>
</svg>
