<svg xmlns="http://www.w3.org/2000/svg" width="35" height="33" viewBox="0 0 35 33">
  <defs>
    <style>
      .cls-1 {
        fill: #fff;
        fill-rule: evenodd;
      }
    </style>
  </defs>
  <path id="Forma_1" data-name="Forma 1" class="cls-1" d="M460.478,1575.05a90.465,90.465,0,0,0-9.032-3.94,1.088,1.088,0,0,1-.594-0.46,15.4,15.4,0,0,1-.6-1.73,1.2,1.2,0,0,0-.621-0.9,0.508,0.508,0,0,1-.2-0.4c0.021-1.35-.293-2.77.706-3.95a0.86,0.86,0,0,0,.063-0.13c0.537-1.19.637-2.54,1.388-3.64a0.174,0.174,0,0,0,.028-0.09c0.085-.84.178-1.68,0.251-2.52a0.393,0.393,0,0,0-.175-0.32,0.686,0.686,0,0,1-.391-0.82q0-2.46,0-4.92a3.151,3.151,0,0,0-1-2.45c-0.817-.74-1.659-1.45-2.5-2.17a0.556,0.556,0,0,1-.064-0.98,4.387,4.387,0,0,1,.579-0.43c-0.042-.07-0.084-0.13-0.126-0.19a4.821,4.821,0,0,0-.76,0c-0.926.15-1.862,0.28-2.775,0.5a11.446,11.446,0,0,0-4.852,2.13,4.348,4.348,0,0,0-1.839,3.05c-0.05.69-.043,1.39-0.049,2.08-0.006,1.13.009,2.25-.014,3.38a0.708,0.708,0,0,1-.235.53,0.59,0.59,0,0,0-.405.81c0.042,0.26.008,0.54,0.066,0.79,0.158,0.71.325,1.41,0.527,2.11a12.928,12.928,0,0,1,.526,1.53,5.167,5.167,0,0,0,1.256,2.75,0.811,0.811,0,0,1,.193.53c-0.055.81-.138,1.61-0.247,2.42a0.566,0.566,0,0,1-.32.41,1.057,1.057,0,0,0-.746.95c-0.168.55-.349,1.1-0.561,1.63a0.878,0.878,0,0,1-.4.42c-0.952.41-1.921,0.79-2.879,1.2-1.019.43-2.048,0.84-3.046,1.32-1.026.49-2.022,1.04-3.025,1.58a7.452,7.452,0,0,0-1.608,1.11v1.77h35v-1.85A5.873,5.873,0,0,0,460.478,1575.05Z" transform="translate(-427 -1545)"/>
</svg>
