<svg xmlns="http://www.w3.org/2000/svg" width="15.969" height="15.97" viewBox="0 0 15.969 15.97">
  <defs>
    <style>
      .cls-1 {
        fill: #707781;
        fill-rule: evenodd;
      }
    </style>
  </defs>
  <path id="Forma_1" data-name="Forma 1" class="cls-1" d="M921.281,1898.57l-0.712.71a0.523,0.523,0,0,1-.733,0l-7.117-7.12a0.523,0.523,0,0,1-.152-0.36,0.528,0.528,0,0,1,.152-0.37l0.712-.71a0.5,0.5,0,0,1,.734,0l7.116,7.11A0.528,0.528,0,0,1,921.281,1898.57Zm1.411-3.57,1.424,1.42a3.023,3.023,0,0,1,0,4.27l-1.424,1.42a3.017,3.017,0,0,1-4.269,0L917,1900.69a3.018,3.018,0,0,1-.319-3.88l1.5,1.5a1,1,0,0,0,.246.96l1.424,1.42a1.012,1.012,0,0,0,1.423,0l1.423-1.42a1.013,1.013,0,0,0,0-1.43l-1.423-1.42a1,1,0,0,0-.958-0.25l-1.5-1.49A3.007,3.007,0,0,1,922.692,1895Zm-11.386-7.12a3.018,3.018,0,0,1,4.27,0l1.424,1.43a3.007,3.007,0,0,1,.32,3.87l-1.5-1.49a0.991,0.991,0,0,0-.246-0.96l-1.424-1.42a0.994,0.994,0,0,0-1.423,0l-1.424,1.42a1,1,0,0,0,0,1.42l1.424,1.42a0.963,0.963,0,0,0,.96.25l1.495,1.5a3.034,3.034,0,0,1-3.879-.32l-1.423-1.42a3.023,3.023,0,0,1,0-4.27Z" transform="translate(-909.031 -1887.03)"/>
</svg>
