<svg xmlns="http://www.w3.org/2000/svg" width="12" height="11" viewBox="0 0 12 11"><defs><style>.cls-1 { fill-rule: evenodd; }</style></defs><path id="Forma_1" class="cls-1" d="M1289.97 1037.64a.369.369 0 0 1-.07-.13l.02-.03.13.06.15.05.17.06a.355.355 0 0 0 .1.02l.05.01h.05a1.2 1.2 0 0 0 .19 0 .539.539 0 0 0 .1-.03.235.235 0 0 0 .1-.05l.04-.03a.169.169 0 0 0 .06-.03l.11-.1v.01-.01h.01l.01-.01.01-.01.03-.02.06-.06a1.059 1.059 0 0 0 .12-.1.938.938 0 0 0 .12-.09l.14-.09a.686.686 0 0 1 .31-.06l.08.01a.145.145 0 0 0 .07.02l.12.06a.835.835 0 0 1 .17.13.583.583 0 0 1 .11.13.309.309 0 0 1 .05.1.124.124 0 0 0 .02.03l-.03.03-.13-.05-.14-.06-.18-.06a.318.318 0 0 0-.09-.03l-.05-.02a.109.109 0 0 1-.05-.01 1.029 1.029 0 0 0-.22-.05.6.6 0 0 0-.12.02.375.375 0 0 0-.12.07.9.9 0 0 0-.09.1l-.03.06-.01.03-.01.02v.01h-.01v.01l-.06.13a.486.486 0 0 1-.11.14.755.755 0 0 1-.14.11l-.16.08a.788.788 0 0 1-.34.01.661.661 0 0 1-.15-.05l-.12-.06-.17-.14-.1-.13zm5.03 7.6v2.76h-12v-2.76h.82v-3.1l2.3-1.56v1.56l2.3-1.56v1.56l2.31-1.56v3.06h.79l.43-5.42h1.32l.38 5.42h.89v1.6h.46zm-8.24-1.19h-1.81v1.61h1.81v-1.61zm3.12 0h-1.81v1.61h1.81v-1.61zm3.16 0h-1.81v1.61h1.81v-1.61z" transform="translate(-1283 -1037)"/></svg>