<svg xmlns="http://www.w3.org/2000/svg" width="20" height="13" viewBox="0 0 20 13">
  <defs>
    <style>
      .cls-1 {
        fill: #707781;
        fill-rule: evenodd;
      }
    </style>
  </defs>
  <path id="Forma_1" data-name="Forma 1" class="cls-1" d="M634,1833a9.874,9.874,0,0,0-10,9.75,9.524,9.524,0,0,0,.581,3.25h18.838a9.524,9.524,0,0,0,.581-3.25A9.874,9.874,0,0,0,634,1833Zm-1.845,11.7a1.959,1.959,0,0,1,3.69,0h-3.69Zm5.087,0-0.157-.57,3.9-5.48-5.562,3.78c0.017,0,.03.02,0.046,0.02a3.312,3.312,0,0,0-4.716,2.25h-5.184a8.233,8.233,0,0,1-.2-1.3h1.96a0.65,0.65,0,1,0,0-1.3h-1.966a8.287,8.287,0,0,1,2.059-4.84l1.389,1.35a0.666,0.666,0,0,0,.942,0,0.638,0.638,0,0,0,0-.92l-1.389-1.35a8.7,8.7,0,0,1,4.965-2.01v1.92a0.667,0.667,0,0,0,1.334,0v-1.92a8.7,8.7,0,0,1,4.964,2.01l-1.388,1.35a0.638,0.638,0,0,0,0,.92,0.666,0.666,0,0,0,.942,0l1.389-1.35a8.287,8.287,0,0,1,2.059,4.84h-1.966a0.65,0.65,0,1,0,0,1.3h1.959a8.117,8.117,0,0,1-.2,1.3h-5.184Z" transform="translate(-624 -1833)"/>
</svg>
