<svg xmlns="http://www.w3.org/2000/svg" width="22" height="20" viewBox="0 0 22 20">
  <defs>
    <style>
      .cls-1 {
        fill-rule: evenodd;
      }
    </style>
  </defs>
  <path id="Forma_1" data-name="Forma 1" class="cls-1" d="M1227.34,2404.85h-2.37v-2.19a0.653,0.653,0,0,0-.66-0.66h-17.65a0.659,0.659,0,0,0-.66.66v17.18a2.175,2.175,0,0,0,2.18,2.16h17.64a2.175,2.175,0,0,0,2.18-2.16v-14.33A0.666,0.666,0,0,0,1227.34,2404.85Zm-20.01-1.53h16.31v16.52a2.105,2.105,0,0,0,.18.84h-15.64a0.841,0.841,0,0,1-.85-0.84v-16.52Zm18.49,17.36a0.841,0.841,0,0,1-.85-0.84v-13.67h1.7v13.67A0.841,0.841,0,0,1,1225.82,2420.68Zm-16.95-10.19h13.23a0.662,0.662,0,0,0,.67-0.66v-4.39a0.668,0.668,0,0,0-.67-0.66h-13.23a0.659,0.659,0,0,0-.66.66v4.39A0.653,0.653,0,0,0,1208.87,2410.49Zm0.66-4.39h11.91v3.08h-11.91v-3.08Zm-0.66,13.04h5.78a0.659,0.659,0,0,0,.66-0.66v-5.73a0.659,0.659,0,0,0-.66-0.66h-5.78a0.659,0.659,0,0,0-.66.66v5.73A0.659,0.659,0,0,0,1208.87,2419.14Zm0.66-5.73h4.46v4.41h-4.46v-4.41Zm12.57-1.32h-5.59a0.66,0.66,0,1,0,0,1.32h5.59A0.66,0.66,0,1,0,1222.1,2412.09Zm0,5.73h-5.59a0.66,0.66,0,1,0,0,1.32h5.59A0.66,0.66,0,1,0,1222.1,2417.82Zm0-2.86h-5.59a0.655,0.655,0,1,0,0,1.31h5.59A0.655,0.655,0,1,0,1222.1,2414.96Z" transform="translate(-1206 -2402)"/>
</svg>
