<svg xmlns="http://www.w3.org/2000/svg" width="20" height="20" viewBox="0 0 20 20">
  <defs>
    <style>
      .cls-1 {
        fill: #4991bf;
        fill-rule: evenodd;
      }
    </style>
  </defs>
  <path id="Forma_1" data-name="Forma 1" class="cls-1" d="M630,2949a10,10,0,1,0,10,10A10.013,10.013,0,0,0,630,2949Zm4.459,7.71c0.005,0.1.007,0.2,0.007,0.3a6.536,6.536,0,0,1-10.074,5.51,4.963,4.963,0,0,0,.548.03,4.593,4.593,0,0,0,2.858-.98,2.3,2.3,0,0,1-2.149-1.6,2.347,2.347,0,0,0,1.039-.04,2.3,2.3,0,0,1-1.846-2.25c0-.01,0-0.02,0-0.03a2.426,2.426,0,0,0,1.041.29,2.315,2.315,0,0,1-.712-3.08,6.526,6.526,0,0,0,4.743,2.41,2.327,2.327,0,0,1-.059-0.53,2.3,2.3,0,0,1,3.98-1.57,4.622,4.622,0,0,0,1.462-.56,2.279,2.279,0,0,1-1.013,1.27,4.508,4.508,0,0,0,1.322-.36A4.608,4.608,0,0,1,634.459,2956.71Z" transform="translate(-620 -2949)"/>
</svg>
