<svg xmlns="http://www.w3.org/2000/svg" width="26.5" height="29.25" viewBox="0 0 26.5 29.25"><defs><style>.cls-1 { fill: #90ca52; fill-rule: evenodd; }</style></defs><path id="Forma_1" class="cls-1" d="M910.568 957.776l-3.91 3.91a.578.578 0 0 1-.818 0l-.056-.058v-2.878a9.1 9.1 0 0 0-3.628 17.117 1.541 1.541 0 1 1-1.447 2.722 12.185 12.185 0 0 1 5.075-22.93v-2.552l.056-.057a.58.58 0 0 1 .818 0l3.91 3.909a.577.577 0 0 1 0 .817zm-2.227 24.173l-3.909-3.908a.578.578 0 0 1 0-.818l3.909-3.908a.578.578 0 0 1 .819 0l.055.057v2.877a9.1 9.1 0 0 0 3.627-17.116 1.542 1.542 0 1 1 1.45-2.722 12.186 12.186 0 0 1-5.077 22.929v2.551l-.056.058a.581.581 0 0 1-.818 0z" transform="translate(-894.25 -952.875)"/></svg>