<svg xmlns="http://www.w3.org/2000/svg" width="12" height="10" viewBox="0 0 12 10">
  <defs>
    <style>
      .cls-1 {
        fill: #8a939f;
        fill-rule: evenodd;
      }
    </style>
  </defs>
  <path id="Forma_1" data-name="Forma 1" class="cls-1" d="M1304.24,1210.72a2.125,2.125,0,0,1,1.02,1.6,1.783,1.783,0,0,0,.74.16A1.74,1.74,0,1,0,1304.24,1210.72Zm-1.15,3.56a1.74,1.74,0,1,0-1.76-1.74A1.752,1.752,0,0,0,1303.09,1214.28Zm0.74,0.12h-1.49a2.243,2.243,0,0,0-2.25,2.23v1.84l0.13,0.04a10.193,10.193,0,0,0,3.06.49,6.333,6.333,0,0,0,2.68-.5l0.12-.06h0.01v-1.81A2.245,2.245,0,0,0,1303.83,1214.4Zm2.92-1.8h-1.49a2.11,2.11,0,0,1-.66,1.5,2.664,2.664,0,0,1,1.91,2.54v0.56a6.147,6.147,0,0,0,2.36-.5l0.12-.06H1309v-1.8A2.245,2.245,0,0,0,1306.75,1212.6Zm-6.75-.12a1.8,1.8,0,0,0,.94-0.26,2.119,2.119,0,0,1,.81-1.38,0.34,0.34,0,0,0,.01-0.1A1.76,1.76,0,1,0,1300,1212.48Zm1.58,1.62a2.137,2.137,0,0,1-.67-1.49c-0.05,0-.11-0.01-0.16-0.01h-1.5a2.245,2.245,0,0,0-2.25,2.24v1.83l0.13,0.04a10.214,10.214,0,0,0,2.54.47v-0.54A2.664,2.664,0,0,1,1301.58,1214.1Z" transform="translate(-1297 -1209)"/>
</svg>
