<svg xmlns="http://www.w3.org/2000/svg" width="8" height="9" viewBox="0 0 8 9"><defs><style>.cls-1 { fill: #8a939f; fill-rule: evenodd; }</style></defs><path id="Forma_1" class="cls-1" d="M1347.72 1033.16h-.27v2.17h.27a.285.285 0 0 0 .28-.3v-1.58a.282.282 0 0 0-.28-.29zm-.7-2.87a.3.3 0 0 0-.17-.27.258.258 0 0 0-.3.07 9.206 9.206 0 0 1-2.95 2.22 5.539 5.539 0 0 1-.68.27v3.35a8 8 0 0 1 3.63 2.47.246.246 0 0 0 .19.09h.01a.289.289 0 0 0 .27-.3v-7.9zm-4.54 2.29h-2.19a.311.311 0 0 0-.29.32v3.03h2.48v-3.35zm.01 3.77h-2.12l.96 2.47a.267.267 0 0 0 .25.18h1.53a.28.28 0 0 0 .27-.29.25.25 0 0 0-.03-.13z" transform="translate(-1340 -1030)"/></svg>