<svg xmlns="http://www.w3.org/2000/svg" width="17" height="17" viewBox="0 0 17 17">
  <defs>
    <style>
      .cls-1 {
        fill: #fd8b91;
        fill-rule: evenodd;
      }
    </style>
  </defs>
  <path id="Forma_1" data-name="Forma 1" class="cls-1" d="M967.518,1898.18l-5.582-10.63a2.694,2.694,0,0,0-4.878,0l-5.681,10.81a3.352,3.352,0,0,0,0,3.09,2.779,2.779,0,0,0,2.439,1.55h11.368a2.967,2.967,0,0,0,2.816-3.09A3.288,3.288,0,0,0,967.518,1898.18Zm-6.816,1.03a1.205,1.205,0,1,1-2.4,0v-0.03a1.205,1.205,0,1,1,2.4,0v0.03Zm0.028-8.7-0.6,5.71a0.636,0.636,0,1,1-1.27,0l-0.6-5.71a0.618,0.618,0,0,1,.552-0.78h1.353A0.624,0.624,0,0,1,960.73,1890.51Z" transform="translate(-951 -1886)"/>
</svg>
