<svg xmlns="http://www.w3.org/2000/svg" width="35" height="35" viewBox="0 0 35 35">
  <defs>
    <style>
      .cls-1 {
        fill: #f65676;
        fill-rule: evenodd;
      }
    </style>
  </defs>
  <path id="G" class="cls-1" d="M640.5,3109a17.5,17.5,0,1,1-17.5,17.5A17.5,17.5,0,0,1,640.5,3109Zm3.453,19.78v1.61a8.775,8.775,0,0,1-1.851.88,5.328,5.328,0,0,1-1.7.26,3.7,3.7,0,0,1-2.923-1.19,6.038,6.038,0,0,1-1.049-3.99,5.844,5.844,0,0,1,1.037-3.84,3.5,3.5,0,0,1,2.783-1.21,3.3,3.3,0,0,1,1.928.52,2.769,2.769,0,0,1,1.072,1.48l5.121-.91a7.157,7.157,0,0,0-1.4-2.75,5.614,5.614,0,0,0-2.344-1.6,13.34,13.34,0,0,0-4.26-.51,10.978,10.978,0,0,0-4.7.83,7.5,7.5,0,0,0-3.4,3.16,9.864,9.864,0,0,0-1.161,4.89,10.179,10.179,0,0,0,1.061,4.73,7.148,7.148,0,0,0,2.988,3.11,10.386,10.386,0,0,0,4.987,1.04,14.033,14.033,0,0,0,4.294-.58,16.544,16.544,0,0,0,4.166-2.18v-7.33h-8.2v3.58h3.551Z" transform="translate(-623 -3109)"/>
</svg>
