<svg xmlns="http://www.w3.org/2000/svg" width="15" height="11" viewBox="0 0 15 11">
  <defs>
    <style>
      .cls-1 {
        fill: #8a939f;
        fill-rule: evenodd;
      }
    </style>
  </defs>
  <path id="Forma_1" data-name="Forma 1" class="cls-1" d="M403.22,3269H391.78a1.721,1.721,0,0,0-1.78,1.65v7.7a1.721,1.721,0,0,0,1.78,1.65h11.44a1.721,1.721,0,0,0,1.78-1.65v-7.7A1.721,1.721,0,0,0,403.22,3269Zm0,9.54H391.78a0.25,0.25,0,0,1-.271-0.19v-6.68l5.174,4.22a0.639,0.639,0,0,0,.38.13h0.874a0.639,0.639,0,0,0,.38-0.13l5.174-4.22v6.68A0.25,0.25,0,0,1,403.22,3278.54Zm-5.72-3.97-5.032-4.11h10.064Z" transform="translate(-390 -3269)"/>
</svg>
