<svg xmlns="http://www.w3.org/2000/svg" width="19" height="12.188" viewBox="0 0 19 12.188"><defs><style>.cls-1 { fill: #76aa3f; fill-rule: evenodd; }</style></defs><path class="cls-1" d="M655.842 236.193a.643.643 0 0 0-.5-.193h-.062l-3.323.164a.691.691 0 0 0-.511.185.613.613 0 0 0-.121.189.624.624 0 0 0 .175.732l.278.3.581.613-6.7 7.061-3.01-3.171a.923.923 0 0 0-1.355 0l-4.01 4.22a1.046 1.046 0 0 0 0 1.426l.18.19a.925.925 0 0 0 1.355 0l3.151-3.319 3.01 3.17a.926.926 0 0 0 1.359 0l7.559-7.961.855.9a.638.638 0 0 0 .456.255.542.542 0 0 0 .274-.079.74.74 0 0 0 .164-.127.864.864 0 0 0 .207-.58l.1-2.274.046-1.146a.731.731 0 0 0-.158-.555z" transform="translate(-637 -236)"/></svg>