<svg xmlns="http://www.w3.org/2000/svg" width="9" height="12" viewBox="0 0 9 12">
  <defs>
    <style>
      .cls-1 {
        fill: #8a939f;
        fill-rule: evenodd;
      }
    </style>
  </defs>
  <path id="Forma_1" data-name="Forma 1" class="cls-1" d="M779.5,3273.25V3271a3,3,0,0,0-6,0v2.25a1.5,1.5,0,0,0-1.5,1.5v3.75a1.5,1.5,0,0,0,1.5,1.5h6a1.5,1.5,0,0,0,1.5-1.5v-3.75A1.5,1.5,0,0,0,779.5,3273.25Zm-2.625,3.63v1.24a0.375,0.375,0,1,1-.75,0v-1.24a0.736,0.736,0,0,1-.375-0.63,0.75,0.75,0,0,1,1.5,0A0.736,0.736,0,0,1,776.875,3276.88Zm1.125-3.63h-3V3271a1.5,1.5,0,0,1,3,0v2.25Z" transform="translate(-772 -3268)"/>
</svg>
