<svg xmlns="http://www.w3.org/2000/svg" viewBox="0 0 512.479 512.479" enable-background="new 0 0 512.479 512.479"><g fill="#FF9800"><path d="M256.239 277.333c76.583 0 138.667-62.083 138.667-138.667s-62.083-138.666-138.667-138.666-138.666 62.083-138.666 138.667c.094 76.544 62.122 138.572 138.666 138.666zm0-213.333c41.237 0 74.667 33.429 74.667 74.667s-33.429 74.667-74.667 74.667-74.667-33.429-74.667-74.667 33.43-74.667 74.667-74.667zM392.069 343.04c15.07-9.926 24.15-26.755 24.171-44.8.21-14.976-8.241-28.728-21.696-35.307-13.824-6.905-30.372-5.35-42.667 4.011-56.983 41.543-134.27 41.543-191.253 0-12.314-9.312-28.833-10.865-42.667-4.011-13.449 6.578-21.904 20.315-21.717 35.285.032 18.042 9.109 34.866 24.171 44.8 19.324 12.851 40.368 22.906 62.507 29.867 3.755 1.166 7.63 2.247 11.627 3.243l-64.469 63.04c-16.912 16.409-17.321 43.42-.912 60.333 16.409 16.912 43.42 17.321 60.333.912.352-.342.698-.689 1.038-1.043l65.707-68.011 65.835 68.139c16.395 16.925 43.407 17.355 60.332.96 16.925-16.395 17.355-43.407.96-60.332-.343-.354-.692-.702-1.047-1.044l-64.363-62.976c3.996-1.024 7.886-2.112 11.669-3.264 22.115-6.934 43.139-16.968 62.441-29.802z"/></g></svg>