<svg xmlns="http://www.w3.org/2000/svg" width="15" height="20" viewBox="0 0 15 20"><defs><style>.cls-1 { fill: #fff; fill-rule: evenodd; }</style></defs><path id="Forma_1" class="cls-1" d="M1228.98 139.2h-.04l-.86-.032-.64.567a1.106 1.106 0 0 1-.73.274 1.069 1.069 0 0 1-.41-.079l-.8-.319-.8.319a1.069 1.069 0 0 1-.41.079 1.125 1.125 0 0 1-.73-.274l-.63-.567-.86.032h-.04a1.068 1.068 0 0 1-.96-.568l-.41-.746-.03-.011v6.589a.545.545 0 0 0 .79.475l3.84-1.89a.569.569 0 0 1 .49 0l3.84 1.892a.537.537 0 0 0 .78-.475v-6.589l-.03.011-.4.747a1.094 1.094 0 0 1-.96.565zm3.94-6.678a.527.527 0 0 0 0-.566l-.46-.715a.5.5 0 0 1-.07-.394l.18-.825a.525.525 0 0 0-.2-.532l-.68-.517a.529.529 0 0 1-.2-.347l-.12-.836a.548.548 0 0 0-.38-.434l-.81-.26a.552.552 0 0 1-.32-.257l-.4-.747a.542.542 0 0 0-.48-.283h-.02l-.86.032h-.02a.552.552 0 0 1-.37-.138l-.63-.566a.586.586 0 0 0-.37-.138.477.477 0 0 0-.2.04l-.8.319a.6.6 0 0 1-.21.041.477.477 0 0 1-.2-.041l-.8-.319a.592.592 0 0 0-.2-.04.556.556 0 0 0-.37.138l-.64.566a.546.546 0 0 1-.36.138h-.02l-.86-.032h-.02a.542.542 0 0 0-.48.283l-.4.747a.545.545 0 0 1-.32.257l-.82.26a.55.55 0 0 0-.37.434l-.12.836a.529.529 0 0 1-.2.347l-.69.517a.525.525 0 0 0-.2.532l.18.825a.5.5 0 0 1-.07.394l-.46.715a.527.527 0 0 0 0 .566l.46.715a.5.5 0 0 1 .07.393l-.18.826a.525.525 0 0 0 .2.532l.68.517a.529.529 0 0 1 .2.347l.12.836a.553.553 0 0 0 .37.434l.63.2.2.063a.57.57 0 0 1 .31.258l.4.747a.542.542 0 0 0 .48.283h.02l.86-.032h.02a.552.552 0 0 1 .37.138l.64.566a.546.546 0 0 0 .36.138.559.559 0 0 0 .21-.04l.79-.319a.6.6 0 0 1 .21-.041.477.477 0 0 1 .2.041l.8.319a.617.617 0 0 0 .2.04.542.542 0 0 0 .37-.138l.64-.566a.546.546 0 0 1 .36-.138h.02l.86.032h.02a.542.542 0 0 0 .48-.283l.41-.747a.5.5 0 0 1 .31-.258l.2-.063.62-.2a.534.534 0 0 0 .37-.434l.12-.836a.542.542 0 0 1 .21-.347l.68-.517a.52.52 0 0 0 .19-.532l-.18-.826a.541.541 0 0 1 .07-.393zm-2.16 1.891a6.333 6.333 0 0 1-.38.732 5.927 5.927 0 0 1-.84 1.043 5.818 5.818 0 0 1-6.26 1.195 5.6 5.6 0 0 1-1.81-1.195 5.2 5.2 0 0 1-.84-1.043 4.17 4.17 0 0 1-.38-.732 5.479 5.479 0 0 1 0-4.349 5.334 5.334 0 0 1 1.22-1.774 5.621 5.621 0 0 1 1.81-1.2 5.8 5.8 0 0 1 6.26 1.2 5.68 5.68 0 0 1 1.22 1.774 5.479 5.479 0 0 1 0 4.35zm-5.26-7.121a5 5 0 0 0-5.05 4.947 4.743 4.743 0 0 0 .18 1.311 5.079 5.079 0 0 0 9.74 0 4.743 4.743 0 0 0 .18-1.311 5 5 0 0 0-5.05-4.946zm2.25 7.239a.54.54 0 0 1-.8.572l-1.45-.8-1.45.8a.541.541 0 0 1-.8-.572l.35-1.605-1.14-1-.13-.113a.532.532 0 0 1 .3-.923l1.65-.2.72-1.509a.553.553 0 0 1 .99 0l.72 1.509 1.65.2a.532.532 0 0 1 .3.923l-.13.113-1.13 1z" transform="translate(-1218 -125)"/></svg>