<svg xmlns="http://www.w3.org/2000/svg" width="13.88" height="13.968" viewBox="0 0 13.88 13.968"><defs><style>.cls-1 { fill: #efb428; fill-rule: evenodd; }</style></defs><path id="Forma_1" class="cls-1" d="M1008.53 193.377l-1.24-.15a5.666 5.666 0 0 0-.55-1.339l.77-.984a.423.423 0 0 0-.03-.521l-1.28-1.283a.4.4 0 0 0-.52-.032l-.98.774a5.292 5.292 0 0 0-1.33-.552l-.14-1.244a.41.41 0 0 0-.39-.346h-1.81a.392.392 0 0 0-.38.346l-.15 1.244a5.54 5.54 0 0 0-1.332.553l-.979-.773a.4.4 0 0 0-.518.031l-1.275 1.284a.406.406 0 0 0-.03.521l.769.984a5.509 5.509 0 0 0-.55 1.339l-1.237.149a.4.4 0 0 0-.344.391v1.814a.4.4 0 0 0 .344.39l1.238.149a5.556 5.556 0 0 0 .549 1.338l-.768.985a.407.407 0 0 0 .031.521l1.274 1.284a.4.4 0 0 0 .517.031l.98-.775a5.47 5.47 0 0 0 1.331.553l.15 1.245a.4.4 0 0 0 .39.346h1.8a.411.411 0 0 0 .39-.346l.15-1.245a5.663 5.663 0 0 0 1.33-.553l.97.774a.4.4 0 0 0 .52-.031l1.28-1.284a.411.411 0 0 0 .03-.522l-.77-.984a5.634 5.634 0 0 0 .55-1.337l1.24-.15a.407.407 0 0 0 .34-.39v-1.814a.4.4 0 0 0-.34-.391zm-6.59 4.785a3.488 3.488 0 1 1 3.46-3.488 3.475 3.475 0 0 1-3.46 3.488z" transform="translate(-995 -187.688)"/></svg>