<svg xmlns="http://www.w3.org/2000/svg" width="22" height="18" viewBox="0 0 22 18"><defs><style>.cls-1 { fill: none; stroke: #1d283e; stroke-width: 2px; fill-rule: evenodd; }</style></defs><path id="Forma_1" class="cls-1" d="M1220.03 944.986c.01-.6-.01-.985-.01-.985h-12.04s-.02.381-.01.985h-3.97v.644c0 .148.03 3.618 2.2 5.519a4.966 4.966 0 0 0 3.37 1.192c.2 0 .41-.013.62-.03a5.816 5.816 0 0 0 2.62 2.094v2.831h-2.89v1.772h-.96v.992h10.07v-.994h-.95v-1.772h-2.89v-2.831a5.816 5.816 0 0 0 2.62-2.094c.21.017.42.03.62.03a4.966 4.966 0 0 0 3.37-1.192c2.17-1.9 2.2-5.371 2.2-5.519v-.644h-3.97zm-12.96 5.2a6.2 6.2 0 0 1-1.71-3.913h2.68a13.1 13.1 0 0 0 1 4.066c.12.245.24.477.36.7a3.662 3.662 0 0 1-2.33-.851zm13.86 0a3.657 3.657 0 0 1-2.33.856l.36-.7a13.1 13.1 0 0 0 1-4.066h2.68a6.2 6.2 0 0 1-1.71 3.912z" transform="translate(-1203 -943)"/></svg>