<svg xmlns="http://www.w3.org/2000/svg" width="17" height="17" viewBox="0 0 17 17"><defs><style>.cls-1 { fill: #2c333d; fill-rule: evenodd; }</style></defs><path id="_.." class="cls-1" d="M390.6 1434h13.81a1.59 1.59 0 0 1 1.593 1.59v9.56a1.592 1.592 0 0 1-1.593 1.6h-2.13v4.25l-6.9-4.25h-4.78a1.592 1.592 0 0 1-1.593-1.6v-9.56a1.59 1.59 0 0 1 1.593-1.59zm.531 10.62h4.781l4.249 2.66.531-2.66h3.187v-8.49h-12.753v8.49zm4.979-3.62v-1.78h-1.784v1.78h1.784zm3.612 0v-1.78h-1.784v1.78h1.784z" transform="translate(-389 -1434)"/></svg>